<?xml version="1.0" encoding="UTF-8"?>
<svg version="1.1" xmlns="http://www.w3.org/2000/svg" width="207" height="196">
<path d="M0 0 C8.23664872 5.94254857 13.39504228 14.1665381 16.203125 23.8671875 C16.66444019 27.74223506 16.59204203 31.59491885 16.515625 35.4921875 C15.525625 35.4921875 14.535625 35.4921875 13.515625 35.4921875 C13.020625 34.4196875 12.525625 33.3471875 12.015625 32.2421875 C9.46681776 27.84214131 6.38610893 25.84267947 1.515625 24.4921875 C-7.50804811 23.32728172 -17.37625648 29.59042124 -24.4375 34.578125 C-27.85465847 36.72480147 -31.16468648 37.86307843 -35.046875 38.8046875 C-35.74433838 38.97492432 -36.44180176 39.14516113 -37.16040039 39.32055664 C-45.94214082 41.27127685 -57.56530685 41.47043665 -65.484375 36.4921875 C-66.65536697 33.64506976 -66.58116429 32.75230871 -65.484375 29.8046875 C-56.73174359 15.30814173 -42.46285347 -0.31288523 -25.72265625 -5.0703125 C-16.35087445 -6.9021442 -8.13120856 -4.93497878 0 0 Z " fill="#826FB0" transform="translate(154.484375,26.5078125)"/>
<path d="M0 0 C0.66 0 1.32 0 2 0 C1.93039063 1.16015625 1.93039063 1.16015625 1.859375 2.34375 C1.62411297 9.13274009 1.68585302 14.52053745 6 20 C10.47881514 24.64382412 16.28522262 27.20785748 22 30 C35.00793246 36.36181523 43.17708879 43.75595444 48.35546875 57.7265625 C49.15690366 60.55344198 49.30719682 63.08163022 49 66 C47.77493102 66.65357278 46.54470484 67.29748233 45.3125 67.9375 C44.28576172 68.47697266 44.28576172 68.47697266 43.23828125 69.02734375 C35.07159651 72.57621722 24.7895017 71.94148129 16.5078125 69.10546875 C2.89053763 63.10283824 -4.86373871 54.35051442 -11 41 C-14.91479118 30.79729201 -13.18739406 20.84341039 -9 11 C-6.40611614 6.9156439 -3.41363896 3.41363896 0 0 Z " fill="#816FB0" transform="translate(39,69)"/>
<path d="M0 0 C-1.02395983 6.65573887 -6.54982472 12.02290195 -10.8125 16.9375 C-11.34657471 17.55431641 -11.88064941 18.17113281 -12.4309082 18.80664062 C-21.39666126 29.09677165 -30.64857465 38.76912255 -44.91796875 40.31640625 C-55.44009254 40.72982303 -63.27796993 37.01854004 -71 30 C-76.96429326 23.85283926 -81.73688942 14.73426288 -82.1328125 6.10546875 C-82.08898437 5.41066406 -82.04515625 4.71585938 -82 4 C-81.01 4 -80.02 4 -79 4 C-78.773125 4.94875 -78.54625 5.8975 -78.3125 6.875 C-77.30886685 10.05291553 -77.30886685 10.05291553 -75 11.375 C-61.77010008 14.13122915 -52.36612564 7.8359907 -41.3125 1.1875 C-29.01081441 -5.77483066 -12.7342152 -5.94263376 0 0 Z " fill="#2E4397" transform="translate(129,138)"/>
<path d="M0 0 C9.68015666 4.30229185 16.6419903 13.93867361 20.5 23.5625 C21.02193599 25.03406952 21.52576577 26.51237238 22 28 C22.495 29.485 22.495 29.485 23 31 C23.89987558 43.03767987 22.49347011 53.16482049 15 63 C14.401875 63.845625 13.80375 64.69125 13.1875 65.5625 C6.55319737 72.95500864 -2.20797014 76.71025588 -12.0859375 77.3515625 C-19.17603294 77.56923014 -24.61493524 77.11406134 -31 74 C-31 73.34 -31 72.68 -31 72 C-30.3709375 71.79246094 -29.741875 71.58492188 -29.09375 71.37109375 C-21.39443025 68.59980246 -15.90710937 64.90642821 -11 58.3125 C-9.29000154 52.64813009 -9.28557791 46.41024921 -10.5 40.61328125 C-12.70620489 29.08241349 -11.42196627 17.98554439 -4.9375 8.1875 C-4.43089844 7.47980469 -3.92429688 6.77210937 -3.40234375 6.04296875 C-2.06176114 4.08997514 -1.00563137 2.14117684 0 0 Z " fill="#816FAF" transform="translate(146,100)"/>
<path d="M0 0 C0.70318359 -0.01224609 1.40636719 -0.02449219 2.13085938 -0.03710938 C6.22932735 -0.04863272 9.37811442 0.36333258 13.0625 2.1875 C13.0625 2.8475 13.0625 3.5075 13.0625 4.1875 C12.19238281 4.33445312 12.19238281 4.33445312 11.3046875 4.484375 C3.00187486 6.07369227 -1.84670125 9.30804223 -6.9375 16.1875 C-11.99457881 24.31494808 -10.96497314 31.72752103 -9.43359375 40.7890625 C-7.54466695 53.72895472 -9.88565758 63.62195005 -16.59375 74.7265625 C-18.31900273 76.60227332 -19.40790236 76.98957347 -21.9375 77.1875 C-30.74442177 71.59849195 -37.01356786 59.94535495 -39.53515625 49.94140625 C-41.3797462 37.31581485 -40.35068038 25.93160088 -32.6875 15.375 C-24.1128727 5.15842279 -13.23775998 0.01206724 0 0 Z " fill="#2E4397" transform="translate(90.9375,20.8125)"/>
<path d="M0 0 C9.20756271 6.08046594 14.79281514 14.10520662 17.59765625 24.87109375 C19.81786821 36.59601478 15.94701979 45.98784004 9.6328125 55.78515625 C8.859375 56.56826172 8.859375 56.56826172 8.0703125 57.3671875 C6.7503125 57.3671875 5.4303125 57.3671875 4.0703125 57.3671875 C4.10511719 56.65433594 4.13992187 55.94148438 4.17578125 55.20703125 C4.38917658 47.65690119 3.96626857 42.78293056 -1.0625 36.8515625 C-4.35160524 34.0016021 -7.55124779 32.7888874 -11.6171875 31.4921875 C-22.40012284 27.72042932 -30.934417 22.39102601 -36.9296875 12.3671875 C-41.86165935 1.99009065 -41.86165935 1.99009065 -39.9296875 -3.6328125 C-28.96030035 -10.12489877 -10.58637228 -6.0647353 0 0 Z " fill="#2E4397" transform="translate(173.9296875,69.6328125)"/>
<path d="M0 0 C5.00140183 5.4023158 7.21524205 10.88340549 7.51171875 18.23046875 C7.18971107 25.19835727 5.07892214 29.63949641 0.57421875 34.85546875 C-6.86467752 41.23166555 -12.43244404 42.84230443 -22.05078125 42.10546875 C-29.06860138 40.50139558 -33.90113646 37.10908287 -37.80078125 31.04296875 C-41.67797002 24.65051511 -41.80056256 18.44991749 -41.05078125 11.10546875 C-38.5150241 3.60749716 -33.75942934 -0.7311532 -27.05078125 -4.64453125 C-17.44995544 -8.64487534 -7.80623815 -6.79717326 0 0 Z " fill="#2E4397" transform="translate(126.05078125,81.89453125)"/>
<path d="M0 0 C2.91549296 2.53521127 2.91549296 2.53521127 3.375 5.0625 C3.8328634 7.1817863 3.8328634 7.1817863 5.9375 8.25 C11.8128105 9.68885155 18.14527569 9.56125982 24 8 C23.67 8.66 23.34 9.32 23 10 C19.71480525 11.09506492 17.26336585 11.09960608 13.8125 11.0625 C12.18248047 11.04896484 12.18248047 11.04896484 10.51953125 11.03515625 C9.68808594 11.02355469 8.85664062 11.01195312 8 11 C8.020625 11.763125 8.04125 12.52625 8.0625 13.3125 C8 16 8 16 7 19 C7.38932856 21.14255793 7.38932856 21.14255793 8 23 C4.43384783 19.88342685 2.90324851 16.9762653 1.25 12.5625 C0.82203125 11.45003906 0.3940625 10.33757812 -0.046875 9.19140625 C-0.93196536 6.22780452 -1.28890898 4.06132405 -1 1 C-0.67 0.67 -0.34 0.34 0 0 Z " fill="#303F88" transform="translate(48,141)"/>
<path d="M0 0 C3.91377145 3.91377145 4.125 9.69490014 4.125 15 C4.09346189 16.33361135 4.05553449 17.66717225 4 19 C3.01 19 2.02 19 1 19 C0.401875 17.906875 -0.19625 16.81375 -0.8125 15.6875 C-2.29044697 13.08925871 -3.69822933 10.95650507 -6 9 C-5.01 8.67 -4.02 8.34 -3 8 C-1.4161808 5.44829129 -0.62655832 2.92393881 0 0 Z " fill="#7C6CA5" transform="translate(167,43)"/>
<path d="M0 0 C0 0.33 0 0.66 0 1 C-4.29 1 -8.58 1 -13 1 C-13.33 1.66 -13.66 2.32 -14 3 C-14 2.34 -14 1.68 -14 1 C-17.18234105 2.75454385 -17.18234105 2.75454385 -20 5 C-19.79349522 10.88538625 -18.51099918 14.33232923 -15.2109375 19.16796875 C-13.77916432 21.33410301 -12.84256642 23.54889767 -12 26 C-17.7041204 21.11075395 -21.48674383 14.51036227 -23.0625 7.125 C-23 4 -23 4 -21.3125 1.625 C-15.12597121 -2.7222905 -7.08664884 -1.18110814 0 0 Z " fill="#303C7E" transform="translate(156,64)"/>
<path d="M0 0 C0 0.66 0 1.32 0 2 C0.66 2.33 1.32 2.66 2 3 C1.48050781 3.29132812 0.96101563 3.58265625 0.42578125 3.8828125 C-4.44313602 6.74476387 -7.62909391 9.47335467 -11 14 C-11.598125 14.78375 -12.19625 15.5675 -12.8125 16.375 C-13.204375 16.91125 -13.59625 17.4475 -14 18 C-13.75 14.6875 -13.75 14.6875 -13 11 C-10.9375 9.3125 -10.9375 9.3125 -9 8 C-9 6.68 -9 5.36 -9 4 C-9.99 3.67 -10.98 3.34 -12 3 C-12 2.34 -12 1.68 -12 1 C-7.95858806 0.36605303 -4.0934693 -0.12404452 0 0 Z " fill="#2D3F88" transform="translate(95,23)"/>
<path d="M0 0 C-2.12471729 2.31666995 -4.11627634 3.74958578 -6.9375 5.125 C-7.60652344 5.45757812 -8.27554688 5.79015625 -8.96484375 6.1328125 C-13.14075375 7.91218298 -16.7126076 8.11181948 -21.25 8.0625 C-22.32765625 8.05347656 -23.4053125 8.04445312 -24.515625 8.03515625 C-25.33546875 8.02355469 -26.1553125 8.01195312 -27 8 C-27 7.67 -27 7.34 -27 7 C-26.27554688 6.96261719 -25.55109375 6.92523438 -24.8046875 6.88671875 C-18.19023448 6.43693594 -13.2220544 5.7186084 -8 1.3125 C-5.27850306 -0.47348237 -3.18290433 -0.2170162 0 0 Z " fill="#324082" transform="translate(102,170)"/>
<path d="M0 0 C1.05477539 -0.01160156 1.05477539 -0.01160156 2.13085938 -0.0234375 C6.21648718 -0.00812118 9.38891173 0.43836743 13.0625 2.25 C13.0625 2.91 13.0625 3.57 13.0625 4.25 C10.05218256 5.18423645 9.19599732 5.29449911 6.0625 4.25 C5.7325 3.59 5.4025 2.93 5.0625 2.25 C-0.5475 2.25 -6.1575 2.25 -11.9375 2.25 C-7.66548833 0.11399417 -4.62290477 -0.05056961 0 0 Z " fill="#353B76" transform="translate(90.9375,20.75)"/>
<path d="M0 0 C1.2380014 3.57644848 0.74926071 6.33694766 0 10 C-0.66 10 -1.32 10 -2 10 C-2.99 13.465 -2.99 13.465 -4 17 C-5.30457818 13.08626547 -4.37656943 11.2678125 -3.125 7.375 C-2.75632812 6.20710938 -2.38765625 5.03921875 -2.0078125 3.8359375 C-1 1 -1 1 0 0 Z " fill="#7E70A2" transform="translate(31,79)"/>
<path d="M0 0 C0 4.63708106 -3.15146329 6.61610759 -6.25 9.84375 C-8.31508444 11.92539016 -8.31508444 11.92539016 -8 15 C-8.99 15.33 -9.98 15.66 -11 16 C-11 10.37522089 -5.96398137 5.84998132 -2.125 2 C-1.42375 1.34 -0.7225 0.68 0 0 Z " fill="#7C6EA4" transform="translate(103,39)"/>
<path d="M0 0 C0.33 0 0.66 0 1 0 C1.33 1.98 1.66 3.96 2 6 C2.99 6.33 3.98 6.66 5 7 C4.34 8.32 3.68 9.64 3 11 C1.68 11 0.36 11 -1 11 C-0.67 7.37 -0.34 3.74 0 0 Z " fill="#303D78" transform="translate(179,116)"/>
<path d="M0 0 C0.66 0 1.32 0 2 0 C1.52585143 5.0575847 -1.00750598 9.01000797 -4 13 C-4.99 13.495 -4.99 13.495 -6 14 C-4.16508812 9.25981099 -2.08058541 4.63586749 0 0 Z " fill="#7E72A1" transform="translate(165,150)"/>
<path d="M0 0 C-1.4488189 3.74278215 -1.4488189 3.74278215 -3.875 4.875 C-6.47386397 5.02787435 -7.8019253 4.33454536 -10 3 C-6.27034861 0.96564469 -4.33094958 0 0 0 Z " fill="#30408A" transform="translate(80,23)"/>
<path d="M0 0 C0.33 0 0.66 0 1 0 C1.22084624 6.09781001 1.01167675 11.21642935 -1 17 C-1.33 17 -1.66 17 -2 17 C-2.21824777 10.9981863 -1.5056904 5.80766296 0 0 Z " fill="#323F7F" transform="translate(191,97)"/>
<path d="M0 0 C0.7425 0.598125 1.485 1.19625 2.25 1.8125 C4.87875914 3.96168306 4.87875914 3.96168306 7.3125 5.5625 C8.1478125 6.2740625 8.1478125 6.2740625 9 7 C9 7.99 9 8.98 9 10 C7.67823515 9.09674384 6.36784934 8.17682097 5.0625 7.25 C4.33160156 6.73953125 3.60070313 6.2290625 2.84765625 5.703125 C0.79194601 3.80822085 0.37330824 2.72574271 0 0 Z " fill="#7D6FA1" transform="translate(39,124)"/>
<path d="M0 0 C-1.29847781 2.59695563 -2.53628294 3.44396817 -5 5 C-7.31347872 5.73260159 -9.645752 6.411438 -12 7 C-5.36842105 0 -5.36842105 0 0 0 Z " fill="#7B70A2" transform="translate(125,24)"/>
<path d="M0 0 C2.7558573 4.13378595 3.10756445 6.05203546 3 11 C1 9.375 1 9.375 -1 7 C-1.3125 3.8125 -1.3125 3.8125 -1 1 C-0.67 0.67 -0.34 0.34 0 0 Z " fill="#766AA2" transform="translate(85,124)"/>
<path d="M0 0 C0.99 0.33 1.98 0.66 3 1 C0.75 3.5 0.75 3.5 -2 6 C-3.32 6 -4.64 6 -6 6 C-5.01 4.68 -4.02 3.36 -3 2 C-2.01 2.33 -1.02 2.66 0 3 C0 2.01 0 1.02 0 0 Z " fill="#323E86" transform="translate(125,114)"/>
<path d="M0 0 C3.53600465 1.91135386 5.78972846 3.62642766 8 7 C7.67 7.66 7.34 8.32 7 9 C6.67 8.01 6.34 7.02 6 6 C5.175 5.690625 4.35 5.38125 3.5 5.0625 C2.675 4.711875 1.85 4.36125 1 4 C0.1875 1.875 0.1875 1.875 0 0 Z " fill="#32407E" transform="translate(122,80)"/>
<path d="M0 0 C0.33 0 0.66 0 1 0 C1 2.97 1 5.94 1 9 C0.01 9 -0.98 9 -2 9 C-2.66 7.35 -3.32 5.7 -4 4 C-3.01 3.67 -2.02 3.34 -1 3 C-0.67 2.01 -0.34 1.02 0 0 Z " fill="#716694" transform="translate(170,53)"/>
<path d="M0 0 C0.33 0 0.66 0 1 0 C1 5.28 1 10.56 1 16 C0.67 16 0.34 16 0 16 C-1.65076188 11.82454348 -2.22083461 9.32841363 -1 5 C-0.814375 4.071875 -0.62875 3.14375 -0.4375 2.1875 C-0.293125 1.465625 -0.14875 0.74375 0 0 Z " fill="#2C397C" transform="translate(79,43)"/>
<path d="M0 0 C4.03384128 2.07143201 5.92856799 3.96615872 8 8 C5 8 5 8 3.3125 6.6875 C2 5 2 5 2 2 C1.34 2 0.68 2 0 2 C0 1.34 0 0.68 0 0 Z " fill="#314382" transform="translate(176,72)"/>
<path d="M0 0 C-3.79692186 2.82561627 -6.18569279 4.56638908 -11 4 C-7.64918101 0.31409911 -4.96535219 -1.77334007 0 0 Z " fill="#313D82" transform="translate(96,138)"/>
<path d="M0 0 C0.33 0.99 0.66 1.98 1 3 C-0.98 3.33 -2.96 3.66 -5 4 C-5.33 3.01 -5.66 2.02 -6 1 C-3 0 -3 0 0 0 Z " fill="#796A9E" transform="translate(121,171)"/>
<path d="M0 0 C0.66 0 1.32 0 2 0 C1.02617818 2.51570636 0.53848865 3.73944098 -1.9375 4.9375 C-4 5 -4 5 -5.75 3.5625 C-6.1625 3.046875 -6.575 2.53125 -7 2 C-4.69 2 -2.38 2 0 2 C0 1.34 0 0.68 0 0 Z " fill="#2E387C" transform="translate(73,93)"/>
<path d="M0 0 C2.79872437 2.52788007 4.45773019 4.20411134 5 8 C3.68 7.67 2.36 7.34 1 7 C0.67 4.69 0.34 2.38 0 0 Z " fill="#7D709F" transform="translate(161,33)"/>
<path d="M0 0 C0.99 0.99 1.98 1.98 3 3 C2.34 4.98 1.68 6.96 1 9 C-1.14809171 5.77786243 -1.29386153 4.72224599 -1 1 C-0.67 0.67 -0.34 0.34 0 0 Z " fill="#2D326B" transform="translate(48,141)"/>
<path d="M0 0 C0.66 0 1.32 0 2 0 C1.67 2.97 1.34 5.94 1 9 C-1 5 -1 5 -1 1 C-0.67 0.67 -0.34 0.34 0 0 Z " fill="#7B6FA0" transform="translate(39,69)"/>
<path d="M0 0 C0 0.99 0 1.98 0 3 C-6.28571429 5.42857143 -6.28571429 5.42857143 -10 4 C-8.02 3.67 -6.04 3.34 -4 3 C-4 2.34 -4 1.68 -4 1 C-2 0 -2 0 0 0 Z " fill="#7E70A0" transform="translate(127,60)"/>
<path d="M0 0 C1.65 0 3.3 0 5 0 C5.66 1.65 6.32 3.3 7 5 C3.34683329 3.75023244 2.21934164 3.32901247 0 0 Z " fill="#324081" transform="translate(144,90)"/>
</svg>
